<?xml version="1.0" encoding="UTF-8" standalone="no"?>
<svg width="512px" height="512px" viewBox="0 0 512 512" version="1.1" xmlns="http://www.w3.org/2000/svg" xmlns:xlink="http://www.w3.org/1999/xlink">
    <defs></defs>
    <g id="Page-1" stroke="none" stroke-width="1" fill="none" fill-rule="evenodd">
        <g id="question">
            <g id="Guide" transform="translate(-3.000000, -3.000000)"></g>
            <path d="M219.47,299.79 C219.47,291.429958 220.723987,283.906033 223.232,277.218 C225.740013,270.529967 229.014313,264.260029 233.055,258.408 C237.095687,252.555971 241.623975,247.052359 246.64,241.897 C251.656025,236.741641 256.671975,231.656025 261.688,226.64 C269.490706,218.837294 276.317971,211.243704 282.17,203.859 C288.022029,196.474296 290.948,188.323378 290.948,179.406 C290.948,168.816614 287.952363,160.317365 281.961,153.908 C275.969637,147.498635 266.564731,144.294 253.746,144.294 C240.648601,144.294 229.920042,148.543624 221.56,157.043 C213.199958,165.542376 208.32334,177.037261 206.93,191.528 L158.442,191.528 C159.278004,177.873265 162.203975,165.542388 167.22,154.535 C172.236025,143.527612 178.993624,134.192372 187.493,126.529 C195.992376,118.865628 206.093941,112.944021 217.798,108.764 C229.502059,104.583979 242.320597,102.494 256.254,102.494 C271.302075,102.494 284.329612,104.374981 295.337,108.137 C306.344388,111.899019 315.47063,117.123967 322.716,123.812 C329.96137,130.500033 335.325649,138.302622 338.809,147.22 C342.292351,156.137378 344.034,165.61195 344.034,175.644 C344.034,183.168038 342.98901,189.995303 340.899,196.126 C338.80899,202.256697 336.092017,208.038973 332.748,213.473 C329.403983,218.907027 325.502689,224.062309 321.044,228.939 C316.585311,233.815691 311.987357,238.483311 307.25,242.942 C302.233975,247.679357 297.357357,252.346977 292.62,256.945 C287.882643,261.543023 283.633019,266.210643 279.871,270.948 C276.108981,275.685357 272.974013,280.631641 270.466,285.787 C267.957987,290.942359 266.564668,296.445971 266.286,302.298 L266.286,315.674 L219.47,315.674 L219.47,299.79 Z M242.46,408.47 C232.985286,408.47 224.904033,405.335031 218.216,399.065 C211.527967,392.794969 208.184,385.201378 208.184,376.284 C208.184,367.087954 211.527967,359.355031 218.216,353.085 C224.904033,346.814969 232.985286,343.68 242.46,343.68 C251.656046,343.68 259.528301,346.814969 266.077,353.085 C272.625699,359.355031 275.9,367.087954 275.9,376.284 C275.9,385.201378 272.625699,392.794969 266.077,399.065 C259.528301,405.335031 251.656046,408.47 242.46,408.47 L242.46,408.47 Z" id="?" fill="#000000"></path>
        </g>
    </g>
</svg>