<?xml version="1.0" encoding="UTF-8" standalone="no"?>
<svg width="512px" height="512px" viewBox="0 0 512 512" version="1.1" xmlns="http://www.w3.org/2000/svg" xmlns:xlink="http://www.w3.org/1999/xlink">
    <defs></defs>
    <g id="Page-1" stroke="none" stroke-width="1" fill="none" fill-rule="evenodd">
        <g id="thumbs-up">
            <g id="Guide" transform="translate(-3.000000, -3.000000)"></g>
            <g id="thumb-hand" transform="translate(73.000000, 43.000000)" fill="#000000">
                <path d="M74.3579661,155.303519 C80.5168569,155.303519 85.5065329,160.913126 85.5065329,167.830621 L85.5065329,304.346405 C85.5065329,311.2639 80.5168569,316.873508 74.3579661,316.873508 L44.7429831,316.873508 C39.219981,316.873508 34.5277369,312.326558 33.7174915,306.165185 L15.73312,169.664728 C15.2562034,166.06293 16.1997803,162.404935 18.3125722,159.641002 C20.4356203,156.887288 23.5176298,155.29841 26.7586115,155.29841 L74.3579661,155.29841 L74.3579661,155.303519 Z" id="Shape"></path>
                <path d="M74.3579661,139.976721 L26.7586115,139.976721 C18.6920542,139.976721 11.1639512,143.742004 6.10760949,150.312092 C1.5128,156.304869 -0.528197966,164.080664 0.482044746,171.677647 L18.4612881,308.162778 C20.2612637,321.864935 31.5585464,332.200305 44.7429831,332.200305 L74.3579661,332.200305 C88.9885369,332.200305 100.89094,319.703856 100.89094,304.346405 L100.89094,167.830621 C100.89094,152.468061 88.9885369,139.976721 74.3579661,139.976721 L74.3579661,139.976721 L74.3579661,139.976721 Z" id="Path"></path>
                <path d="M131.300784,312.495153 C132.485383,314.431438 136.849426,317.277113 144.362145,317.277113 L287.344822,317.277113 C303.190761,317.277113 313.216266,313.12866 318.836702,309.639259 C325.785326,305.332429 328.810926,300.284804 329.333996,296.994651 C330.364751,290.409237 328.66221,285.663039 323.262283,280.078976 L314.298302,270.816481 L326.816081,267.633617 C342.959452,263.531144 345.026091,255.780893 345.026091,249.48158 C345.026091,242.191133 342.041516,237.337647 335.641603,234.21098 L316.482888,224.846307 L337.308247,220.186961 C341.897928,219.165174 356.8567,214.802146 356.8567,201.753932 C356.8567,191.035392 346.600428,186.207451 346.497866,186.156362 L322.652035,175.20281 L348.585017,171.94842 C350.426018,171.657211 365.133511,168.84219 365.133511,153.219074 C365.133511,132.599423 347.205548,131.552092 343.610725,131.552092 C333.544195,131.552092 229.648168,131.485675 228.5969,131.485675 L217.838072,131.480566 L221.55597,121.421078 C225.961039,109.466176 237.04294,74.6794553 235.376296,57.533878 C233.463501,37.7572004 227.904602,23.2376144 218.868827,14.3633987 C210.704835,6.35770153 201.699829,5.16221133 197.053738,5.16221133 C196.130674,5.16221133 195.222994,5.20819172 194.340955,5.29504357 C187.710275,5.97453159 185.428255,7.98234205 183.884686,11.0017211 C181.279593,16.1106536 180.510373,25.4804357 181.500103,39.6423965 C182.612908,55.3779085 180.248838,67.6342375 173.341239,81.969902 C166.823379,95.4779194 156.556852,110.232516 141.013473,132.568769 C138.028898,136.860272 134.85971,141.41744 131.485397,146.291362 C131.377706,147.190534 131.305912,148.672124 131.305912,149.704129 L131.305912,312.495153 L131.300784,312.495153 Z" id="Shape"></path>
            </g>
        </g>
    </g>
</svg>