<?xml version="1.0" encoding="UTF-8" standalone="no"?>
<svg width="266px" height="55px" viewBox="0 0 266 55" version="1.1" xmlns="http://www.w3.org/2000/svg" xmlns:xlink="http://www.w3.org/1999/xlink">
    <defs></defs>
    <g id="Page-1" stroke="none" stroke-width="1" fill="none" fill-rule="evenodd">
        <g id="Group" fill="#D8D8D8">
            <path d="M237.5,54 C253.240115,54 266,42.1355459 266,27.5 C266,12.8644541 253.240115,1 237.5,1 C221.759885,1 209,12.8644541 209,27.5 C209,42.1355459 221.759885,54 237.5,54 Z M237.5,38 C243.29899,38 248,33.2989899 248,27.5 C248,21.7010101 243.29899,17 237.5,17 C231.70101,17 227,21.7010101 227,27.5 C227,33.2989899 231.70101,38 237.5,38 Z" id="Oval-1"></path>
            <path d="M0.068359375,2.47773438 L19.1949219,36.321875 L19.2074223,52.6925766 L36.7460938,52.6925781 L36.6808594,36.4914063 L56.1546875,2.43046875 L36.7324219,2.43046875 L28.1628906,21.1765625 L19.2074219,2.54023438 L0.068359375,2.47773438 Z" id="Path-1"></path>
            <path d="M58.6480469,2.40195313 L58.6480469,52.828125 L99.1628906,52.9976563 L99.0542969,38.5675781 L76.2410006,38.5675781 L76.2410006,33.7 L95.6720845,33.7 L95.6720845,20.8122213 L76.1098935,20.8122213 L76.1098935,16.9835712 L98.3452977,16.9835712 L98.3452977,2.60537639 L58.6480469,2.40195313 Z" id="Path-2"></path>
            <path d="M110.299714,35.2291888 L102.872425,46.1369424 C102.872425,46.1369424 111.266548,54.2919147 127.000282,54.2919152 C142.734016,54.2919157 149.683348,46.6913195 149.683347,37.9212441 C149.683346,29.1511687 142.045736,24.0597689 134.161811,21.8419194 C126.277885,19.62407 122.146325,19.442234 122.146326,16.5342276 C122.146328,13.6262212 128.424605,14.1236253 128.424605,14.1236253 C128.424605,14.1236253 133.882065,14.3296829 141.348926,18.0858012 C141.348926,18.4477671 148.068318,7.17054211 148.068318,7.17054211 C148.068318,7.17054211 140.755316,0.952989472 128.274155,0.95298946 C115.792994,0.952989448 106.390758,7.04738577 106.390758,17.3349187 C106.390758,27.6224517 113.446018,31.1496558 119.861951,32.806646 C126.277885,34.4636363 131.930315,34.4714831 131.930315,37.9212435 C131.930315,42.0454692 117.278383,40.9766291 110.299714,35.2291888 Z" id="Path-3"></path>
            <path d="M153.526042,2.47265625 L153.526042,52.8682813 L171.039277,52.8682813 L171.039277,30.5909782 L187.965495,52.7675781 L205.460894,52.7675781 L205.460894,2.48307291 L188.160295,2.48307291 L188.160295,25.1153757 L171.151367,2.46223958 L153.526042,2.47265625 Z" id="Path-4"></path>
        </g>
    </g>
</svg>