<?xml version="1.0" encoding="UTF-8" standalone="no"?>
<svg width="512px" height="512px" viewBox="0 0 512 512" version="1.1" xmlns="http://www.w3.org/2000/svg" xmlns:xlink="http://www.w3.org/1999/xlink">
    <defs></defs>
    <g id="Page-1" stroke="none" stroke-width="1" fill="none" fill-rule="evenodd">
        <g id="twitter">
            <g id="Guide" transform="translate(-3.000000, -3.000000)"></g>
            <g id="Group" transform="translate(62.000000, 99.000000)" fill="#000000">
                <path d="M387,37.5059738 C372.774025,43.816587 357.482766,48.0797348 341.437471,49.9976723 C357.815322,40.1798402 370.395943,24.6333799 376.31795,6.10755234 C360.988023,15.2003212 344.010826,21.8009462 325.93935,25.3584206 C311.469763,9.93954924 290.851987,0.30734 268.033994,0.30734 C224.223147,0.30734 188.700778,35.8258312 188.700778,79.6367012 C188.700778,85.8545142 189.402596,91.909927 190.755977,97.7159337 C124.823138,94.4078879 66.3687151,62.8238435 27.2405551,14.8271817 C20.4117852,26.543584 16.4985769,40.1701904 16.4985769,54.7093767 C16.4985769,82.2332566 30.5041398,106.514835 51.790862,120.740787 C38.7868238,120.328981 26.5542037,116.759918 15.8586256,110.818589 C15.8496071,111.149184 15.8496071,111.481718 15.8496071,111.816213 C15.8496071,150.252227 43.1956426,182.3138 79.4874909,189.606593 C72.8307936,191.420119 65.8222178,192.388749 58.5874134,192.388749 C53.475514,192.388749 48.5066927,191.889937 43.6615824,190.965768 C53.7577924,222.482129 83.0546151,245.418061 117.770755,246.056073 C90.6200144,267.335084 56.4142981,280.0182 19.2446587,280.0182 C12.8412228,280.0182 6.52675427,279.641182 0.32053,278.908409 C35.4291538,301.419006 77.1287302,314.552595 121.929491,314.552595 C267.849025,314.552595 347.646265,193.670613 347.646265,88.8338815 C347.646265,85.3943689 347.568932,81.9741783 347.416204,78.5694769 C362.914325,67.3866754 376.363065,53.4159013 386.998715,37.5059738 L387,37.5059738 Z" id="Shape"></path>
            </g>
        </g>
    </g>
</svg>